<?xml version="1.0" encoding="UTF-8"?>
<svg version="1.1" xmlns="http://www.w3.org/2000/svg" width="1000" height="1080">
<path d="M0 0 C330 0 660 0 1000 0 C1000 356.4 1000 712.8 1000 1080 C670 1080 340 1080 0 1080 C0 723.6 0 367.2 0 0 Z " fill="#FEFEFE" transform="translate(0,0)"/>
<path d="M0 0 C330 0 660 0 1000 0 C1000 26.4 1000 52.8 1000 80 C670 80 340 80 0 80 C0 53.6 0 27.2 0 0 Z " fill="#000000" transform="translate(0,1000)"/>
<path d="M0 0 C0.70537903 0.00215515 1.41075806 0.0043103 2.13751221 0.00653076 C12.43779738 0.05702379 22.21165585 0.42791856 32.1875 3.3125 C33.23188232 3.60253906 33.23188232 3.60253906 34.29736328 3.8984375 C62.98672358 12.01133537 62.98672358 12.01133537 69.1875 21.3125 C68.19492187 21.7971875 67.20234375 22.281875 66.1796875 22.78125 C41.68076726 34.82721053 20.99245752 49.50364982 1.1875 68.3125 C0.35992187 69.09753906 -0.46765625 69.88257813 -1.3203125 70.69140625 C-6.97080865 76.19424135 -11.92866588 82.1268629 -16.8125 88.3125 C-17.58207031 89.25351562 -18.35164062 90.19453125 -19.14453125 91.1640625 C-40.59820917 117.98982456 -53.85845817 148.86462763 -64.4375 181.25 C-79.89029977 228.51286871 -109.69508871 273.22444153 -149.8125 303.3125 C-151.51563621 304.60024559 -153.21875994 305.88800769 -154.921875 307.17578125 C-159.87107516 310.90737979 -164.83678076 314.61635588 -169.8125 318.3125 C-187.98651604 309.67689843 -198.20971773 287.12183934 -204.8125 269.3125 C-205.12058594 268.54679687 -205.42867188 267.78109375 -205.74609375 266.9921875 C-208.71514898 259.14649752 -209.60837994 250.5748032 -210.8125 242.3125 C-211.09287109 240.4253125 -211.09287109 240.4253125 -211.37890625 238.5 C-217.41512106 188.06779791 -196.47373089 133.40888719 -165.62841797 94.03369141 C-164.36660257 92.45139939 -163.09320721 90.87953433 -161.8125 89.3125 C-161.37824707 88.78060059 -160.94399414 88.24870117 -160.49658203 87.70068359 C-138.42181108 60.83511471 -113.53143464 38.8426078 -82.8125 22.3125 C-82.19826172 21.98008301 -81.58402344 21.64766602 -80.95117188 21.30517578 C-67.24494732 13.9635596 -52.95130281 8.52646345 -37.9375 4.5 C-37.21393311 4.30510986 -36.49036621 4.11021973 -35.74487305 3.90942383 C-23.90222471 0.89258661 -12.18516934 -0.06718244 0 0 Z " fill="#5E361C" transform="translate(465.8125,409.6875)"/>
<path d="M0 0 C0.69754395 0.19867676 1.39508789 0.39735352 2.11376953 0.60205078 C13.37161083 3.88712578 23.72104292 8.38353969 34 14 C34.8765625 14.46921875 35.753125 14.9384375 36.65625 15.421875 C67.03884994 32.63868163 91.24086072 60.75889834 108 91 C108.4017041 91.71591309 108.8034082 92.43182617 109.21728516 93.16943359 C115.85160353 105.06940766 121.28571491 117.22260473 126 130 C126.24057129 130.64324219 126.48114258 131.28648437 126.72900391 131.94921875 C140.23215817 168.48600006 145.18185605 209.4279734 139 248 C138.88172852 248.81984375 138.76345703 249.6396875 138.64160156 250.484375 C135.58704973 271.50093522 129.3284681 291.41713751 119 310 C118.15501953 311.57587891 118.15501953 311.57587891 117.29296875 313.18359375 C104.59355408 336.05443656 85.26729537 354.8300602 61 365 C60.34 365 59.68 365 59 365 C59.0721875 364.04609375 59.144375 363.0921875 59.21875 362.109375 C60.76325988 339.28403843 62.21466747 314.87254103 57.49609375 292.36669922 C56.95020642 289.76245129 56.46034557 287.15017158 55.96875 284.53515625 C47.73983563 242.41615483 28.75341172 203.25904356 0.6875 170.8125 C-31.22304741 133.69389983 -49.35487763 86.87847195 -57 39 C-57.2160791 37.68008057 -57.2160791 37.68008057 -57.43652344 36.33349609 C-59.30021459 24.58037751 -59.20885724 12.87005304 -59 1 C-40.7361064 -5.17863635 -18.50846809 -5.27959531 0 0 Z " fill="#5E361C" transform="translate(605,250)"/>
<path d="M0 0 C15.44463849 6.33156981 25.92128933 27.29727868 32.24609375 41.65625 C35.13003967 48.56397969 37.29798269 55.71483766 39 63 C39.18546387 63.75877441 39.37092773 64.51754883 39.56201172 65.29931641 C41.50546163 74.33349795 41.39772604 83.42830875 41.375 92.625 C41.37412384 93.48826904 41.37324768 94.35153809 41.37234497 95.2409668 C41.22415294 139.59807186 25.8405243 182.01574661 0 218 C-0.45455566 218.64243652 -0.90911133 219.28487305 -1.37744141 219.94677734 C-7.9260254 229.15972518 -15.02972441 237.55743995 -22.87109375 245.6953125 C-24.90248228 247.80548235 -26.82677383 249.9543194 -28.6796875 252.22265625 C-30.59242599 254.51214626 -32.41464163 256.40448224 -34.6875 258.3125 C-36.85873927 260.15524919 -38.99852871 261.99861199 -41.0703125 263.953125 C-55.3414294 277.37891442 -71.72763363 287.88107015 -89 297 C-89.72364746 297.38381836 -90.44729492 297.76763672 -91.19287109 298.16308594 C-115.88440895 311.04208019 -143.66671267 318.45050523 -171.5 318.4375 C-172.53932175 318.43860275 -172.53932175 318.43860275 -173.59963989 318.43972778 C-196.04140025 318.377646 -219.89724401 313.05931254 -238 299 C-238.33 298.34 -238.66 297.68 -239 297 C-238.00742187 296.5153125 -237.01484375 296.030625 -235.9921875 295.53125 C-215.63742793 285.52683896 -196.97362823 274.08208353 -180.484375 258.3671875 C-178.39962983 256.38077937 -176.27578215 254.5258046 -174.0625 252.6875 C-141.49846507 224.32090824 -121.11925317 183.40735549 -108.06640625 143.02734375 C-96.14466557 106.29422959 -77.98705431 72.71704958 -51.359375 44.51171875 C-49.42641387 42.45394721 -47.60280862 40.36763388 -45.8125 38.1875 C-43.23003844 35.13683011 -40.361145 32.58644557 -37.31640625 30.00390625 C-35.09909703 28.08572813 -32.95604637 26.1017521 -30.81835938 24.09570312 C-21.23414296 15.13303122 -10.84006857 7.38984358 0 0 Z " fill="#5E361C" transform="translate(540,435)"/>
<path d="M0 0 C-0.144375 1.28648437 -0.28875 2.57296875 -0.4375 3.8984375 C-6.90014896 65.1613598 6.53482502 129.62327538 45 179 C45.69351563 179.94488281 46.38703125 180.88976562 47.1015625 181.86328125 C50.52634244 186.52848502 54.0097827 191.05966798 57.83886719 195.40185547 C65.89689635 204.57727246 72.4506779 214.71665741 79 225 C79.46825195 225.72703125 79.93650391 226.4540625 80.41894531 227.203125 C100.77787927 259.07192678 111.55489974 296.69043931 116 334 C116.09643799 334.7945459 116.19287598 335.5890918 116.29223633 336.40771484 C116.97222224 342.49833496 117.12147737 348.50042701 117.0625 354.625 C117.05798828 355.53378906 117.05347656 356.44257812 117.04882812 357.37890625 C117.03721178 359.58601089 117.02088168 361.79296697 117 364 C99.84882377 373.07521646 74.16559499 370.48536626 56.30566406 365.203125 C38.81634334 359.81634334 38.81634334 359.81634334 36 357 C36.38055007 352.86393524 37.52125109 349.17303025 38.92578125 345.28125 C43.70619231 331.70757861 47.57781493 318.52501861 49.66210938 304.2722168 C49.91417508 302.5771478 50.21007089 300.8884881 50.52832031 299.20458984 C51.06615361 295.55055265 51.1796458 291.96201755 51.203125 288.27734375 C51.21013931 287.54328812 51.21715363 286.80923248 51.22438049 286.05293274 C51.24186981 283.68105937 51.24823757 281.30943558 51.25 278.9375 C51.25067474 278.12865356 51.25134949 277.31980713 51.25204468 276.4864502 C51.2274433 257.93747145 49.62320967 240.4551479 43 223 C42.75266113 222.34193359 42.50532227 221.68386719 42.25048828 221.00585938 C36.14623799 205.14170608 26.98027036 191.98027036 15 180 C14.11441406 179.11441406 13.22882813 178.22882813 12.31640625 177.31640625 C-13.95245032 152.26758366 -48.1862192 146.6965065 -83 146 C-83.07799798 139.11884446 -83.05553121 132.33851473 -82.25 125.5 C-82.16274658 124.7479126 -82.07549316 123.9958252 -81.9855957 123.22094727 C-76.84900309 81.78292505 -60.40433646 41.18758292 -27.25390625 14.390625 C-8.21409329 0 -8.21409329 0 0 0 Z " fill="#5F371D" transform="translate(539,254)"/>
<path d="M0 0 C1.65 0 3.3 0 5 0 C5.33 4.29 5.66 8.58 6 13 C6.9075 11.989375 7.815 10.97875 8.75 9.9375 C10.296875 8.21484375 10.296875 8.21484375 12 7 C14.203125 7.31640625 14.203125 7.31640625 16 8 C14.71937515 9.7074998 13.38232443 11.37373596 12 13 C11.34 13 10.68 13 10 13 C11.91202643 17.78006608 14.02766235 21.79772953 17 26 C14.8125 26.4375 14.8125 26.4375 12 26 C10.47721739 24.31282609 9.31032522 22.55899343 8.11328125 20.62890625 C7.083831 18.83937637 7.083831 18.83937637 5 18 C5 20.64 5 23.28 5 26 C3.35 26 1.7 26 0 26 C-0.495 23.525 -0.495 23.525 -1 21 C-2.299375 22.2375 -2.299375 22.2375 -3.625 23.5 C-5.94169652 25.40338916 -6.97114948 25.99398948 -10 26.625 C-14.25061619 25.73945496 -16.14809128 24.25932425 -19 21 C-19.69724396 17.0066937 -19.85292141 14.76943784 -18.109375 11.15234375 C-15.87828362 8.00650491 -14.27383047 7.0488983 -10.5 6.375 C-6.53809053 7.08248383 -4.7831139 8.13254931 -2 11 C-2 11.66 -2 12.32 -2 13 C-1.34 13 -0.68 13 0 13 C0 8.71 0 4.42 0 0 Z " fill="#0A0A0A" transform="translate(202,1026)"/>
<path d="M0 0 C3.53494505 0.9336246 4.94397547 2.52143196 6.9375 5.51171875 C7.57747166 8.32079789 7.56770793 10.70133202 6.9375 13.51171875 C5.14386089 16.32175335 3.91869065 18.02112343 0.9375 19.51171875 C-2.79921591 19.85771096 -5.18159553 20.04489777 -8.4375 18.07421875 C-10.81100976 14.33137643 -11.48941968 10.92576325 -11.0625 6.51171875 C-8.98072538 1.40096205 -5.31701814 -0.45315496 0 0 Z " fill="#EBEBEB" transform="translate(174.0625,1032.48828125)"/>
<path d="M0 0 C3.53494505 0.9336246 4.94397547 2.52143196 6.9375 5.51171875 C7.57747166 8.32079789 7.56770793 10.70133202 6.9375 13.51171875 C5.14386089 16.32175335 3.91869065 18.02112343 0.9375 19.51171875 C-2.65954193 19.91139008 -4.63029887 19.73262155 -7.875 18.07421875 C-10.5428787 14.94898942 -11.09548806 12.82360431 -11.31640625 8.7734375 C-11.0388952 6.30145443 -10.54650432 4.97787407 -9.125 2.94921875 C-5.75090098 0.26371137 -4.19605943 -0.3576187 0 0 Z " fill="#ECECEC" transform="translate(109.0625,1032.48828125)"/>
<path d="M0 0 C0.33 0.66 0.66 1.32 1 2 C3.6905528 0.77992056 3.6905528 0.77992056 6 -1 C9.4375 -0.75 9.4375 -0.75 13 0 C15 3 15 3 14.8125 6.5625 C14 10 14 10 11 12 C8.5 12.3125 8.5 12.3125 6 12 C4.3125 10.5 4.3125 10.5 3 9 C2.34 9 1.68 9 1 9 C0.566875 9.495 0.13375 9.99 -0.3125 10.5 C-2 12 -2 12 -4.5 12.375 C-7 12 -7 12 -8.8125 10.9375 C-10.67036623 7.90624457 -10.37133265 5.46577141 -10 2 C-7.70989947 -2.31077747 -4.20045325 -1.01122023 0 0 Z " fill="#131313" transform="translate(815,1039)"/>
<path d="M0 0 C2.50164525 1.43734881 3.96305664 2.86369354 6 5 C6 5.99 6 6.98 6 8 C4.68 8 3.36 8 2 8 C1.34 7.01 0.68 6.02 0 5 C-3.58357241 4.74984127 -3.58357241 4.74984127 -7 5 C-7 6.32 -7 7.64 -7 9 C-5.84371094 9.39832031 -5.84371094 9.39832031 -4.6640625 9.8046875 C-3.66117188 10.15789062 -2.65828125 10.51109375 -1.625 10.875 C-0.12839844 11.39707031 -0.12839844 11.39707031 1.3984375 11.9296875 C4 13 4 13 6 15 C6.36599043 18.36711191 6.37424895 20.34060899 4.6875 23.3125 C2.13933842 25.86066158 0.11291802 25.99384084 -3.4375 26.1875 C-8.65217391 25.91304348 -8.65217391 25.91304348 -11 24 C-12.25 20.875 -12.25 20.875 -13 18 C-11.68 18 -10.36 18 -9 18 C-8.34 18.99 -7.68 19.98 -7 21 C-5.02252878 21.36297936 -5.02252878 21.36297936 -2.875 21.1875 C-1.59625 21.125625 -0.3175 21.06375 1 21 C0.67 19.35 0.34 17.7 0 16 C-0.69867188 15.80664062 -1.39734375 15.61328125 -2.1171875 15.4140625 C-3.02726563 15.15367188 -3.93734375 14.89328125 -4.875 14.625 C-5.77992188 14.36976562 -6.68484375 14.11453125 -7.6171875 13.8515625 C-10 13 -10 13 -12 11 C-12.4375 7.625 -12.4375 7.625 -12 4 C-8.4615505 -0.18180395 -5.32920466 -0.84145337 0 0 Z " fill="#E7E7E7" transform="translate(143,1026)"/>
<path d="M0 0 C0.99 0 1.98 0 3 0 C3.33 2.64 3.66 5.28 4 8 C4.61875 7.34 5.2375 6.68 5.875 6 C8 4 8 4 10 4 C9.67 4.5775 9.34 5.155 9 5.75 C7.72924102 8.19883862 7.72924102 8.19883862 8 12 C9.42621684 14.71126384 9.42621684 14.71126384 11 17 C7.20411134 16.45773019 5.52788007 14.79872437 3 12 C3 13.65 3 15.3 3 17 C2.01 17 1.02 17 0 17 C-0.33 16.01 -0.66 15.02 -1 14 C-1.66 14 -2.32 14 -3 14 C-3 14.66 -3 15.32 -3 16 C-9.37426409 17.32296047 -9.37426409 17.32296047 -11.9375 16 C-13.58367385 12.90131981 -13.36841966 10.43858351 -13 7 C-11.9375 5 -11.9375 5 -10 4 C-6.4375 4.125 -6.4375 4.125 -3 5 C-2.01 6.485 -2.01 6.485 -1 8 C-0.67 5.36 -0.34 2.72 0 0 Z " fill="#0F0F0F" transform="translate(787,1034)"/>
<path d="M0 0 C4.05644724 0.72436558 5.79894179 1.51469054 8.5 4.625 C8.5 6.605 8.5 8.585 8.5 10.625 C4.21 10.625 -0.08 10.625 -4.5 10.625 C-4.17 12.275 -3.84 13.925 -3.5 15.625 C-0.58347826 15.79181109 -0.58347826 15.79181109 2.5 15.625 C3.16 14.965 3.82 14.305 4.5 13.625 C6.625 14 6.625 14 8.5 14.625 C7 17.125 7 17.125 4.5 19.625 C-0.40852174 20.48204348 -0.40852174 20.48204348 -3.5 19.625 C-7.0341186 16.6062737 -8.30734394 14.70387394 -9.125 10.125 C-8.11708415 4.48067123 -6.00880338 1.0730006 0 0 Z " fill="#E9E9E9" transform="translate(56.5,1032.375)"/>
<path d="M0 0 C1.32 0 2.64 0 4 0 C6.31 6.6 8.62 13.2 11 20 C13.31 13.4 15.62 6.8 18 0 C19.32 0 20.64 0 22 0 C20.36231563 9.00726401 17.13020303 17.42639358 14 26 C12.35 26 10.7 26 9 26 C0 4.8647541 0 4.8647541 0 0 Z " fill="#ECECEC" transform="translate(27,1026)"/>
<path d="M0 0 C1.32 0 2.64 0 4 0 C4.33 4.29 4.66 8.58 5 13 C5.9075 11.989375 6.815 10.97875 7.75 9.9375 C9.296875 8.21484375 9.296875 8.21484375 11 7 C13.203125 7.31640625 13.203125 7.31640625 15 8 C13.71937515 9.7074998 12.38232443 11.37373596 11 13 C10.34 13 9.68 13 9 13 C10.91202643 17.78006608 13.02766235 21.79772953 16 26 C13.8125 26.4375 13.8125 26.4375 11 26 C9.47721739 24.31282609 8.31032522 22.55899343 7.11328125 20.62890625 C6.083831 18.83937637 6.083831 18.83937637 4 18 C4 20.64 4 23.28 4 26 C2.68 26 1.36 26 0 26 C0 17.42 0 8.84 0 0 Z " fill="#E6E6E6" transform="translate(203,1026)"/>
<path d="M0 0 C2.5 0.5625 2.5 0.5625 4.8125 2.625 C6.93193033 6.31437872 7.09967873 8.36474886 6.5 12.5625 C4.9375 15.5625 4.9375 15.5625 2.5 17.5625 C-1.125 17.625 -1.125 17.625 -4.5 16.5625 C-7.03920233 13.80249747 -6.91748935 10.08078623 -6.81640625 6.46875 C-6.5 4.5625 -6.5 4.5625 -4.8125 2.0625 C-2.5 0.5625 -2.5 0.5625 0 0 Z " fill="#DBDBDB" transform="translate(921.5,1033.4375)"/>
<path d="M0 0 C2.5 0.5625 2.5 0.5625 4.8125 2.625 C6.93193033 6.31437872 7.09967873 8.36474886 6.5 12.5625 C4.9375 15.5625 4.9375 15.5625 2.5 17.5625 C-1.125 17.625 -1.125 17.625 -4.5 16.5625 C-7.03920233 13.80249747 -6.91748935 10.08078623 -6.81640625 6.46875 C-6.5 4.5625 -6.5 4.5625 -4.8125 2.0625 C-2.5 0.5625 -2.5 0.5625 0 0 Z " fill="#DBDBDB" transform="translate(936.5,1033.4375)"/>
<path d="M0 0 C3.0625 0.3125 3.0625 0.3125 5 1.4375 C6.5777372 4.22174212 5.722188 6.27793521 5.0625 9.3125 C5.3925 9.6425 5.7225 9.9725 6.0625 10.3125 C6.3125 12.75 6.3125 12.75 6.0625 15.3125 C2.59251271 17.62582486 1.13740752 17.65207563 -2.9375 17.3125 C-3.9275 16.6525 -4.9175 15.9925 -5.9375 15.3125 C-6.125 12.9375 -6.125 12.9375 -5.9375 10.3125 C-5.9375 8.9925 -5.9375 7.6725 -5.9375 6.3125 C-5.2208209 2.25131846 -4.39109068 0.46713731 0 0 Z " fill="#DBDBDB" transform="translate(879.9375,1033.6875)"/>
<path d="M0 0 C1.9375 1.1875 1.9375 1.1875 3 3 C2.72057545 4.67654729 2.37668344 6.34259285 2 8 C2.26871451 10.34165499 2.59038404 12.67884289 3 15 C-0.46923881 17.31282587 -1.92205575 17.42478586 -6 17 C-7.9375 15.9375 -7.9375 15.9375 -9 14 C-8.74438677 11.6568787 -8.40729228 9.32156597 -8 7 C-8.20625 6.2575 -8.4125 5.515 -8.625 4.75 C-9 3 -9 3 -7.9375 1.25 C-5.15593839 -0.54455588 -3.24250962 -0.4053137 0 0 Z " fill="#D4D4D4" transform="translate(954,1034)"/>
<path d="M0 0 C0.33 0.99 0.66 1.98 1 3 C-1.31 2.67 -3.62 2.34 -6 2 C-6.99 3.485 -6.99 3.485 -8 5 C-6.6078125 4.6596875 -6.6078125 4.6596875 -5.1875 4.3125 C-2 4 -2 4 -0.125 5.0625 C1.49933741 7.85996999 1.39704314 9.82365485 1 13 C-0.0625 14.9375 -0.0625 14.9375 -2 16 C-5.5625 15.875 -5.5625 15.875 -9 15 C-11.68450733 10.973239 -11.67304618 7.72836241 -11 3 C-8.07873274 -1.907729 -5.19187334 -1.19812462 0 0 Z " fill="#EBEBEB" transform="translate(970,1035)"/>
<path d="M0 0 C3.9375 0.625 3.9375 0.625 6.4375 2.4375 C7.9375 4.625 7.9375 4.625 7.9375 7.625 C6.6175 7.295 5.2975 6.965 3.9375 6.625 C3.9375 5.965 3.9375 5.305 3.9375 4.625 C1.02097826 4.45818891 1.02097826 4.45818891 -2.0625 4.625 C-4.44244368 6.56832332 -4.44244368 6.56832332 -4.3125 10.125 C-4.44244368 13.68167668 -4.44244368 13.68167668 -2.0625 15.625 C1.02097826 15.79181109 1.02097826 15.79181109 3.9375 15.625 C4.2675 14.635 4.5975 13.645 4.9375 12.625 C5.9275 12.625 6.9175 12.625 7.9375 12.625 C7.58143309 15.20648508 7.10421807 16.44545747 5.3125 18.375 C1.92582458 20.15746075 -0.28746295 20.15482976 -4.0625 19.625 C-7 17.625 -7 17.625 -9.0625 14.625 C-9.80194481 9.96649769 -9.78223922 7.03809419 -7.0625 3.125 C-3.55147796 0.1991483 -3.55147796 0.1991483 0 0 Z " fill="#E8E8E8" transform="translate(76.0625,1032.375)"/>
<path d="M0 0 C3.98106749 0.71090491 5.74051909 1.69827783 8.5 4.625 C8.5 5.615 8.5 6.605 8.5 7.625 C5.63275314 7.05155063 4.6385485 6.7635485 2.5 4.625 C-0.80683466 4.91483269 -0.80683466 4.91483269 -3.5 6.625 C-3.75003964 10.08321402 -3.75003964 10.08321402 -3.5 13.625 C-1.60244856 15.97473818 -1.60244856 15.97473818 1.625 15.75 C3.048125 15.688125 3.048125 15.688125 4.5 15.625 C4.83 14.635 5.16 13.645 5.5 12.625 C6.49 12.625 7.48 12.625 8.5 12.625 C8.13802104 15.24934747 7.67343943 16.44513689 5.8125 18.375 C2.7015993 20.05656795 0.99911355 20.18485817 -2.5 19.625 C-5.875 17.625 -5.875 17.625 -8.5 14.625 C-9.19724396 10.6316937 -9.35292141 8.39443784 -7.609375 4.77734375 C-5.37828362 1.63150491 -3.77383047 0.6738983 0 0 Z " fill="#E5E5E5" transform="translate(191.5,1032.375)"/>
<path d="M0 0 C2 3 2 3 1.8125 6.5625 C1 10 1 10 -2 12 C-4.79523674 12.34940459 -6.3648354 12.37233787 -8.8125 10.9375 C-10.67036623 7.90624457 -10.37133265 5.46577141 -10 2 C-7.71139092 -2.30797003 -4.19123206 -1.06685907 0 0 Z " fill="#F3F3F3" transform="translate(728,1039)"/>
<path d="M0 0 C2 3 2 3 1.8125 6.5625 C1 10 1 10 -2 12 C-4.79523674 12.34940459 -6.3648354 12.37233787 -8.8125 10.9375 C-10.67036623 7.90624457 -10.37133265 5.46577141 -10 2 C-7.71139092 -2.30797003 -4.19123206 -1.06685907 0 0 Z " fill="#E0E0E0" transform="translate(828,1039)"/>
<path d="M0 0 C2 3 2 3 1.8125 6.5625 C1 10 1 10 -2 12 C-4.79523674 12.34940459 -6.3648354 12.37233787 -8.8125 10.9375 C-10.67036623 7.90624457 -10.37133265 5.46577141 -10 2 C-7.71139092 -2.30797003 -4.19123206 -1.06685907 0 0 Z " fill="#E1E1E1" transform="translate(771,1039)"/>
<path d="M0 0 C2.62527189 -0.05382106 5.24944713 -0.09358313 7.875 -0.125 C8.62136719 -0.14175781 9.36773438 -0.15851563 10.13671875 -0.17578125 C12.09194461 -0.1933959 14.04742021 -0.10320189 16 0 C18 2 18 2 18.1953125 4.6015625 C18.17210937 5.59929687 18.14890625 6.59703125 18.125 7.625 C18.10695313 8.62789062 18.08890625 9.63078125 18.0703125 10.6640625 C18.04710937 11.43492188 18.02390625 12.20578125 18 13 C17.34 13 16.68 13 16 13 C15.67 10.03 15.34 7.06 15 4 C13.68 4 12.36 4 11 4 C10.67 6.97 10.34 9.94 10 13 C9.34 13 8.68 13 8 13 C7.67 9.7 7.34 6.4 7 3 C6.01 3 5.02 3 4 3 C3.67 6.3 3.34 9.6 3 13 C2.01 13 1.02 13 0 13 C0 8.71 0 4.42 0 0 Z " fill="#EBEBEB" transform="translate(831,1038)"/>
<path d="M0 0 C1 1 1 1 1.25 4.875 C1.2073067 7.517241 1.14785737 8.7431951 -0.1875 11.0625 C-2 12 -2 12 -4.5625 11.8125 C-7 11 -7 11 -9 9 C-9.54782609 2.97391304 -9.54782609 2.97391304 -7.875 0 C-5.042116 -1.51087147 -3.01987426 -0.78779328 0 0 Z " fill="#0A0A0A" transform="translate(111,1037)"/>
<path d="M0 0 C1.52491998 3.04983996 1.23562548 5.6423369 1 9 C-0.1875 11 -0.1875 11 -2 12 C-5.34192692 11.75546876 -6.60543557 11.39456443 -9 9 C-9.54782609 2.97391304 -9.54782609 2.97391304 -7.875 0 C-5.01598528 -1.52480785 -3.03270286 -0.8570682 0 0 Z " fill="#080808" transform="translate(176,1037)"/>
<path d="M0 0 C0.99 0 1.98 0 3 0 C3 1.32 3 2.64 3 4 C4.32 4 5.64 4 7 4 C7 4.99 7 5.98 7 7 C5.68 7 4.36 7 3 7 C3 11.29 3 15.58 3 20 C4.32 20 5.64 20 7 20 C7 20.99 7 21.98 7 23 C5.00045254 23.04254356 2.99958364 23.04080783 1 23 C0 22 0 22 -0.09765625 18.62109375 C-0.09098369 17.22652923 -0.07902532 15.83198257 -0.0625 14.4375 C-0.05798828 13.72658203 -0.05347656 13.01566406 -0.04882812 12.28320312 C-0.03700864 10.52209987 -0.01907263 8.76103964 0 7 C-1.32 7 -2.64 7 -4 7 C-4 6.01 -4 5.02 -4 4 C-2.68 4 -1.36 4 0 4 C0 2.68 0 1.36 0 0 Z " fill="#F9F9F9" transform="translate(154,1029)"/>
<path d="M0 0 C0.99 0 1.98 0 3 0 C3 1.32 3 2.64 3 4 C4.32 4 5.64 4 7 4 C7 4.99 7 5.98 7 7 C5.68 7 4.36 7 3 7 C3 11.29 3 15.58 3 20 C4.32 20 5.64 20 7 20 C7 20.99 7 21.98 7 23 C5.00045254 23.04254356 2.99958364 23.04080783 1 23 C0 22 0 22 -0.09765625 18.62109375 C-0.09098369 17.22652923 -0.07902532 15.83198257 -0.0625 14.4375 C-0.05798828 13.72658203 -0.05347656 13.01566406 -0.04882812 12.28320312 C-0.03700864 10.52209987 -0.01907263 8.76103964 0 7 C-1.32 7 -2.64 7 -4 7 C-4 6.01 -4 5.02 -4 4 C-2.68 4 -1.36 4 0 4 C0 2.68 0 1.36 0 0 Z " fill="#F9F9F9" transform="translate(89,1029)"/>
<path d="M0 0 C2.475 0.495 2.475 0.495 5 1 C7.72502965 0.62277985 7.72502965 0.62277985 10 0 C10 1.32 10 2.64 10 4 C8.35 4.66 6.7 5.32 5 6 C4.67 10.29 4.34 14.58 4 19 C2.68 19 1.36 19 0 19 C0 12.73 0 6.46 0 0 Z " fill="#E7E7E7" transform="translate(119,1033)"/>
<path d="M0 0 C1.875 1.375 1.875 1.375 3 3 C3 3.66 3 4.32 3 5 C2.01 5 1.02 5 0 5 C-0.33 4.34 -0.66 3.68 -1 3 C-2.32 3 -3.64 3 -5 3 C-5 3.99 -5 4.98 -5 6 C-2.36 6.99 0.28 7.98 3 9 C3.1875 11.875 3.1875 11.875 3 15 C-0.46923881 17.31282587 -1.92205575 17.42478586 -6 17 C-7.875 15.625 -7.875 15.625 -9 14 C-9 13.34 -9 12.68 -9 12 C-8.01 12 -7.02 12 -6 12 C-5.67 12.66 -5.34 13.32 -5 14 C-3.35 13.67 -1.7 13.34 0 13 C0 12.34 0 11.68 0 11 C-0.56589844 10.84144531 -1.13179687 10.68289063 -1.71484375 10.51953125 C-3.92756716 9.81565965 -5.94841871 9.09044132 -8 8 C-9.1875 5.5 -9.1875 5.5 -9 3 C-6.83453349 -0.6940311 -3.97364694 -0.49670587 0 0 Z " fill="#E8E8E8" transform="translate(748,1034)"/>
<path d="M0 0 C1.8125 1.25 1.8125 1.25 3 3 C3 4.32 3 5.64 3 7 C0.03 7 -2.94 7 -6 7 C-5.01 8.485 -5.01 8.485 -4 10 C-0.535 9.505 -0.535 9.505 3 9 C2.67 9.99 2.34 10.98 2 12 C-4.37426409 13.32296047 -4.37426409 13.32296047 -6.9375 12 C-8.58367385 8.90131981 -8.36841966 6.43858351 -8 3 C-5.95177941 -0.34183359 -3.7548828 -0.56323242 0 0 Z " fill="#F6F6F6" transform="translate(692,1038)"/>
<path d="M0 0 C0.99 0 1.98 0 3 0 C3.33 2.64 3.66 5.28 4 8 C4.61875 7.34 5.2375 6.68 5.875 6 C8 4 8 4 10 4 C9.67 4.5775 9.34 5.155 9 5.75 C7.72924102 8.19883862 7.72924102 8.19883862 8 12 C9.42621684 14.71126384 9.42621684 14.71126384 11 17 C7.20411134 16.45773019 5.52788007 14.79872437 3 12 C3 13.65 3 15.3 3 17 C2.01 17 1.02 17 0 17 C0 11.39 0 5.78 0 0 Z " fill="#D8D8D8" transform="translate(787,1034)"/>
<path d="M0 0 C3.63 0 7.26 0 11 0 C10 4 10 4 8 6 C8.66 6.391875 9.32 6.78375 10 7.1875 C12 9 12 9 12.5 11.5 C12 14 12 14 10.4375 15.875 C7.03118195 17.44714679 4.59718087 16.76094211 1 16 C0.67 14.68 0.34 13.36 0 12 C0.86625 12.495 0.86625 12.495 1.75 13 C4.19883862 14.27075898 4.19883862 14.27075898 8 14 C8 12.35 8 10.7 8 9 C5.525 8.01 5.525 8.01 3 7 C4.32 5.68 5.64 4.36 7 3 C4.69 2.67 2.38 2.34 0 2 C0 1.34 0 0.68 0 0 Z " fill="#E4E4E4" transform="translate(888,1034)"/>
<path d="M0 0 C0.99 0.33 1.98 0.66 3 1 C4.16796875 3.72265625 4.16796875 3.72265625 5.1875 7.0625 C5.53167969 8.16722656 5.87585938 9.27195312 6.23046875 10.41015625 C6.48441406 11.26480469 6.73835937 12.11945313 7 13 C7.24234375 12.14535156 7.4846875 11.29070312 7.734375 10.41015625 C8.23710938 8.75306641 8.23710938 8.75306641 8.75 7.0625 C9.07484375 5.96035156 9.3996875 4.85820313 9.734375 3.72265625 C11 1 11 1 13.140625 0.12109375 C14.06101562 0.06115234 14.06101562 0.06115234 15 0 C13.13236819 5.72210596 11.14710968 11.37661751 9 17 C7.68 17 6.36 17 5 17 C4.16080602 14.73117913 3.32848276 12.46022973 2.5 10.1875 C2.26152344 9.54490234 2.02304687 8.90230469 1.77734375 8.24023438 C0.72931254 5.35066261 0 3.09923939 0 0 Z " fill="#EFEFEF" transform="translate(669,1034)"/>
<path d="M0 0 C1 1 1 1 1.4375 3.6875 C0.80565824 8.47144475 -1.42136191 9.86869167 -5 13 C-2.03 13.495 -2.03 13.495 1 14 C1 14.66 1 15.32 1 16 C-2.63 16 -6.26 16 -10 16 C-8.95475221 11.81900884 -8.5894258 11.27154064 -5.4375 8.75 C-4.79683594 8.22921875 -4.15617188 7.7084375 -3.49609375 7.171875 C-3.00238281 6.78515625 -2.50867188 6.3984375 -2 6 C-2.33 4.68 -2.66 3.36 -3 2 C-5.38564077 2.57584432 -7.66682784 3.22227595 -10 4 C-9.625 2.0625 -9.625 2.0625 -9 0 C-5.90842747 -1.54578627 -3.31526981 -0.60277633 0 0 Z " fill="#E6E6E6" transform="translate(912,1035)"/>
<path d="M0 0 C1 1 1 1 1.4375 3.6875 C0.80565824 8.47144475 -1.42136191 9.86869167 -5 13 C-2.03 13.495 -2.03 13.495 1 14 C1 14.66 1 15.32 1 16 C-2.63 16 -6.26 16 -10 16 C-8.95475221 11.81900884 -8.5894258 11.27154064 -5.4375 8.75 C-4.79683594 8.22921875 -4.15617188 7.7084375 -3.49609375 7.171875 C-3.00238281 6.78515625 -2.50867188 6.3984375 -2 6 C-2.33 4.68 -2.66 3.36 -3 2 C-5.38564077 2.57584432 -7.66682784 3.22227595 -10 4 C-9.625 2.0625 -9.625 2.0625 -9 0 C-5.90842747 -1.54578627 -3.31526981 -0.60277633 0 0 Z " fill="#E5E5E5" transform="translate(871,1035)"/>
<path d="M0 0 C3.53571429 0.53571429 3.53571429 0.53571429 5 2 C5.16796875 3.99609375 5.16796875 3.99609375 5.1875 6.4375 C5.20167969 7.24058594 5.21585938 8.04367187 5.23046875 8.87109375 C5 11 5 11 3 13 C-0.53571429 12.46428571 -0.53571429 12.46428571 -2 11 C-2.16796875 9.00390625 -2.16796875 9.00390625 -2.1875 6.5625 C-2.20167969 5.75941406 -2.21585938 4.95632813 -2.23046875 4.12890625 C-2 2 -2 2 0 0 Z " fill="#0A0A0A" transform="translate(935,1036)"/>
<path d="M0 0 C3.53571429 0.53571429 3.53571429 0.53571429 5 2 C5.16796875 3.99609375 5.16796875 3.99609375 5.1875 6.4375 C5.20167969 7.24058594 5.21585938 8.04367187 5.23046875 8.87109375 C5 11 5 11 3 13 C-0.53571429 12.46428571 -0.53571429 12.46428571 -2 11 C-2.16796875 9.00390625 -2.16796875 9.00390625 -2.1875 6.5625 C-2.20167969 5.75941406 -2.21585938 4.95632813 -2.23046875 4.12890625 C-2 2 -2 2 0 0 Z " fill="#0A0A0A" transform="translate(920,1036)"/>
<path d="M0 0 C3.125 0.25 3.125 0.25 5.0625 1.375 C6.6402372 4.15924212 5.784688 6.21543521 5.125 9.25 C5.455 9.58 5.785 9.91 6.125 10.25 C6.375 12.6875 6.375 12.6875 6.125 15.25 C3.125 17.25 3.125 17.25 0.4375 16.875 C-0.7071875 16.565625 -0.7071875 16.565625 -1.875 16.25 C-0.555 15.59 0.765 14.93 2.125 14.25 C2.125 12.93 2.125 11.61 2.125 10.25 C0.805 9.59 -0.515 8.93 -1.875 8.25 C-0.555 7.59 0.765 6.93 2.125 6.25 C2.125 5.26 2.125 4.27 2.125 3.25 C0.145 3.58 -1.835 3.91 -3.875 4.25 C-3.875 0.33695652 -3.875 0.33695652 0 0 Z " fill="#EDEDED" transform="translate(879.875,1033.75)"/>
<path d="M0 0 C0.33 0 0.66 0 1 0 C1.66 1.98 2.32 3.96 3 6 C6.47147842 6.74957157 6.47147842 6.74957157 10 7 C10.33 6.01 10.66 5.02 11 4 C11.99 4 12.98 4 14 4 C13.63802104 6.62434747 13.17343943 7.82013689 11.3125 9.75 C8.24885205 11.40602592 6.44265183 11.4918074 3 11 C0.125 9 0.125 9 -2 7 C-1.125 2.25 -1.125 2.25 0 0 Z " fill="#EEEEEE" transform="translate(186,1041)"/>
<path d="M0 0 C0.93065133 2.60582371 1.14917407 3.64198224 0.0625 6.25 C-0.288125 6.8275 -0.63875 7.405 -1 8 C0.32 8 1.64 8 3 8 C3.33 9.65 3.66 11.3 4 13 C0.37723685 11.6744419 -2.63505348 10.05653045 -5.8125 7.875 C-6.60269531 7.33617187 -7.39289063 6.79734375 -8.20703125 6.2421875 C-8.79871094 5.83226562 -9.39039063 5.42234375 -10 5 C-3.45205479 0 -3.45205479 0 0 0 Z " fill="#654128" transform="translate(311,728)"/>
<path d="M0 0 C0.33 0 0.66 0 1 0 C1 12.87 1 25.74 1 39 C-0.62368262 35.75263476 -1.47818725 33.52373289 -2.1875 30.0625 C-2.36667969 29.22847656 -2.54585937 28.39445313 -2.73046875 27.53515625 C-3.10644642 23.99878654 -2.58750657 21.17501314 -1 18 C-0.84995027 16.6265365 -0.75161994 15.2471474 -0.68359375 13.8671875 C-0.64169922 13.06152344 -0.59980469 12.25585938 -0.55664062 11.42578125 C-0.51732422 10.58402344 -0.47800781 9.74226562 -0.4375 8.875 C-0.39431641 8.02550781 -0.35113281 7.17601562 -0.30664062 6.30078125 C-0.20045764 4.20071777 -0.09971503 2.10038052 0 0 Z " fill="#663F27" transform="translate(580,509)"/>
<path d="M0 0 C1.01382963 3.6208201 1.49897691 7.27811418 2 11 C-1.46923881 13.31282587 -2.92205575 13.42478586 -7 13 C-8.9375 11.8125 -8.9375 11.8125 -10 10 C-9.6875 7.3125 -9.6875 7.3125 -9 5 C-8.773125 5.639375 -8.54625 6.27875 -8.3125 6.9375 C-7.14749104 9.27193661 -7.14749104 9.27193661 -4.375 9.75 C-3.59125 9.8325 -2.8075 9.915 -2 10 C-2 8.68 -2 7.36 -2 6 C-3.65 5.67 -5.3 5.34 -7 5 C-7 4.34 -7 3.68 -7 3 C-3.535 2.505 -3.535 2.505 0 2 C0 1.34 0 0.68 0 0 Z " fill="#E6E6E6" transform="translate(955,1038)"/>
<path d="M0 0 C0.33 1.32 0.66 2.64 1 4 C0.4225 3.649375 -0.155 3.29875 -0.75 2.9375 C-3.35801776 1.85082593 -4.39417629 2.06934867 -7 3 C-7 4.65 -7 6.3 -7 8 C-4.39417629 8.93065133 -3.35801776 9.14917407 -0.75 8.0625 C-0.1725 7.711875 0.405 7.36125 1 7 C0.67 8.32 0.34 9.64 0 11 C-6.37426409 12.32296047 -6.37426409 12.32296047 -8.9375 11 C-10.58367385 7.90131981 -10.36841966 5.43858351 -10 2 C-7.69981438 -2.32976117 -4.22839932 -0.87759231 0 0 Z " fill="#EAEAEA" transform="translate(707,1039)"/>
<path d="M0 0 C0.33 1.32 0.66 2.64 1 4 C0.4225 3.649375 -0.155 3.29875 -0.75 2.9375 C-3.35801776 1.85082593 -4.39417629 2.06934867 -7 3 C-7 4.65 -7 6.3 -7 8 C-4.39417629 8.93065133 -3.35801776 9.14917407 -0.75 8.0625 C-0.1725 7.711875 0.405 7.36125 1 7 C0.67 8.32 0.34 9.64 0 11 C-6.37426409 12.32296047 -6.37426409 12.32296047 -8.9375 11 C-10.58367385 7.90131981 -10.36841966 5.43858351 -10 2 C-7.69981438 -2.32976117 -4.22839932 -0.87759231 0 0 Z " fill="#F4F4F4" transform="translate(784,1039)"/>
<path d="M0 0 C0.33 1.32 0.66 2.64 1 4 C0.4225 3.649375 -0.155 3.29875 -0.75 2.9375 C-3.35801776 1.85082593 -4.39417629 2.06934867 -7 3 C-7 4.65 -7 6.3 -7 8 C-4.39417629 8.93065133 -3.35801776 9.14917407 -0.75 8.0625 C-0.1725 7.711875 0.405 7.36125 1 7 C0.67 8.32 0.34 9.64 0 11 C-6.37426409 12.32296047 -6.37426409 12.32296047 -8.9375 11 C-10.58367385 7.90131981 -10.36841966 5.43858351 -10 2 C-7.69981438 -2.32976117 -4.22839932 -0.87759231 0 0 Z " fill="#E9E9E9" transform="translate(815,1039)"/>
<path d="M0 0 C0.99 0 1.98 0 3 0 C3 0.99 3 1.98 3 3 C3.99 3 4.98 3 6 3 C6 3.66 6 4.32 6 5 C5.01 5 4.02 5 3 5 C3 7.97 3 10.94 3 14 C3.99 14 4.98 14 6 14 C6 14.66 6 15.32 6 16 C4.33388095 16.042721 2.66617115 16.04063832 1 16 C0 15 0 15 -0.09765625 12.71484375 C-0.08025391 11.34005859 -0.08025391 11.34005859 -0.0625 9.9375 C-0.05347656 9.01839844 -0.04445313 8.09929687 -0.03515625 7.15234375 C-0.02355469 6.44207031 -0.01195312 5.73179688 0 5 C-0.66 5 -1.32 5 -2 5 C-2 4.34 -2 3.68 -2 3 C-1.34 3 -0.68 3 0 3 C0 2.01 0 1.02 0 0 Z " fill="#E8E8E8" transform="translate(754,1035)"/>
<path d="M0 0 C0 0.33 0 0.66 0 1 C-1.670625 1.12375 -1.670625 1.12375 -3.375 1.25 C-7.05753944 1.57873787 -7.05753944 1.57873787 -8.4375 4.0625 C-8.623125 4.701875 -8.80875 5.34125 -9 6 C-10.32 6 -11.64 6 -13 6 C-13 11.28 -13 16.56 -13 22 C-13.33 22 -13.66 22 -14 22 C-14 15.07 -14 8.14 -14 1 C-7.74676102 -1.08441299 -6.056125 -1.04415948 0 0 Z " fill="#6D4931" transform="translate(560,250)"/>
<path d="M0 0 C0.99 0 1.98 0 3 0 C3 0.99 3 1.98 3 3 C3.99 3 4.98 3 6 3 C6 3.66 6 4.32 6 5 C5.01 5 4.02 5 3 5 C3 7.97 3 10.94 3 14 C3.66 14 4.32 14 5 14 C5 14.66 5 15.32 5 16 C3.35 15.67 1.7 15.34 0 15 C0 11.7 0 8.4 0 5 C-0.66 5 -1.32 5 -2 5 C-2 4.34 -2 3.68 -2 3 C-1.34 3 -0.68 3 0 3 C0 2.01 0 1.02 0 0 Z " fill="#D9D9D9" transform="translate(711,1035)"/>
<path d="M0 0 C0.33 0.66 0.66 1.32 1 2 C1.99 2.33 2.98 2.66 4 3 C3.01 6.3 2.02 9.6 1 13 C0.67 12.34 0.34 11.68 0 11 C-2.31 11 -4.62 11 -7 11 C-6.57847656 10.54109375 -6.15695312 10.0821875 -5.72265625 9.609375 C-4.90087891 8.68898438 -4.90087891 8.68898438 -4.0625 7.75 C-3.51722656 7.14671875 -2.97195313 6.5434375 -2.41015625 5.921875 C-0.93787201 3.91532695 -0.42470811 2.42997551 0 0 Z " fill="#191919" transform="translate(872,1038)"/>
<path d="M0 0 C7.35678392 -0.36180905 7.35678392 -0.36180905 10 1.125 C11.42098605 3.78934884 11.19767261 6.03491085 11 9 C8.36 9 5.72 9 3 9 C3.66 8.38125 4.32 7.7625 5 7.125 C7.2284549 5.24362573 7.2284549 5.24362573 7 3 C4.36 2.67 1.72 2.34 -1 2 C-0.67 1.34 -0.34 0.68 0 0 Z " fill="#F2F2F2" transform="translate(54,1034)"/>
<path d="M0 0 C2.31 0 4.62 0 7 0 C7 0.99 7 1.98 7 3 C6.01 3.33 5.02 3.66 4 4 C3.67 6.97 3.34 9.94 3 13 C2.01 13 1.02 13 0 13 C0 8.71 0 4.42 0 0 Z " fill="#D2D2D2" transform="translate(731,1038)"/>
<path d="M0 0 C3.53571429 0.53571429 3.53571429 0.53571429 5 2 C5.1875 4.4375 5.1875 4.4375 5 7 C4.34 7.66 3.68 8.32 3 9 C-0.53571429 8.46428571 -0.53571429 8.46428571 -2 7 C-2.1875 4.5625 -2.1875 4.5625 -2 2 C-1.34 1.34 -0.68 0.68 0 0 Z " fill="#101010" transform="translate(822,1040)"/>
<path d="M0 0 C3.53571429 0.53571429 3.53571429 0.53571429 5 2 C5.1875 4.4375 5.1875 4.4375 5 7 C4.34 7.66 3.68 8.32 3 9 C-0.53571429 8.46428571 -0.53571429 8.46428571 -2 7 C-2.1875 4.5625 -2.1875 4.5625 -2 2 C-1.34 1.34 -0.68 0.68 0 0 Z " fill="#111111" transform="translate(765,1040)"/>
<path d="M0 0 C3.53571429 0.53571429 3.53571429 0.53571429 5 2 C5.1875 4.4375 5.1875 4.4375 5 7 C4.34 7.66 3.68 8.32 3 9 C-0.53571429 8.46428571 -0.53571429 8.46428571 -2 7 C-2.1875 4.5625 -2.1875 4.5625 -2 2 C-1.34 1.34 -0.68 0.68 0 0 Z " fill="#111111" transform="translate(722,1040)"/>
<path d="M0 0 C0.66 0 1.32 0 2 0 C0.94744358 5.26278209 -0.33743201 10.37487802 -1.9375 15.5 C-2.25589844 16.5209375 -2.57429687 17.541875 -2.90234375 18.59375 C-3.26457031 19.3878125 -3.62679687 20.181875 -4 21 C-4.99 21.33 -5.98 21.66 -7 22 C-5.0827282 14.49068545 -2.75950985 7.24196241 0 0 Z " fill="#DBDBDB" transform="translate(857,1033)"/>
<path d="M0 0 C0 3 0 3 -1.26928711 4.578125 C-2.13952515 5.40570313 -2.13952515 5.40570313 -3.02734375 6.25 C-3.96803711 7.16265625 -3.96803711 7.16265625 -4.92773438 8.09375 C-5.59095703 8.7228125 -6.25417969 9.351875 -6.9375 10 C-8.24277522 11.24530657 -9.54376245 12.49512744 -10.83984375 13.75 C-11.42113037 14.30171875 -12.00241699 14.8534375 -12.60131836 15.421875 C-14.23843781 17.061006 -14.23843781 17.061006 -15 20 C-16.62890625 21.38671875 -16.62890625 21.38671875 -18.5625 22.6875 C-19.52349609 23.34298828 -19.52349609 23.34298828 -20.50390625 24.01171875 C-21.24447266 24.50091797 -21.24447266 24.50091797 -22 25 C-20.33767237 20.87422299 -17.38077555 17.93288509 -14.375 14.75 C-13.84100586 14.17805908 -13.30701172 13.60611816 -12.75683594 13.0168457 C-8.59885944 8.58321261 -4.35551517 4.24022212 0 0 Z " fill="#F1ECE7" transform="translate(473,471)"/>
<path d="M0 0 C1.8125 1.1875 1.8125 1.1875 3 3 C3.1875 5.6875 3.1875 5.6875 3 8 C1.68 6.35 0.36 4.7 -1 3 C-2.96161898 3.18733817 -2.96161898 3.18733817 -5 4 C-6.13070444 5.84727567 -6.13070444 5.84727567 -6.75 8.0625 C-6.99234375 8.79597656 -7.2346875 9.52945312 -7.484375 10.28515625 C-7.73960937 11.13400391 -7.73960937 11.13400391 -8 12 C-8.33 12 -8.66 12 -9 12 C-9.48539326 4.71910112 -9.48539326 4.71910112 -7.3125 1.5 C-4.54877578 -0.29268598 -3.23177469 -0.58006212 0 0 Z " fill="#EAEAEA" transform="translate(924,1034)"/>
<path d="M0 0 C2.31 0 4.62 0 7 0 C6.51917969 0.38800781 6.03835938 0.77601562 5.54296875 1.17578125 C3.54250502 3.54088647 3.51123932 5.12691453 3.3125 8.1875 C3.24675781 9.08855469 3.18101562 9.98960938 3.11328125 10.91796875 C3.07589844 11.60503906 3.03851562 12.29210938 3 13 C2.01 13 1.02 13 0 13 C0 8.71 0 4.42 0 0 Z " fill="#D5D5D5" transform="translate(831,1038)"/>
<path d="M0 0 C0.66 1.32 1.32 2.64 2 4 C2.66 4 3.32 4 4 4 C4 6.64 4 9.28 4 12 C3.34 11.67 2.68 11.34 2 11 C-0.29633824 14.44450737 -0.54016485 16.93812283 -1 21 C-1.33 21 -1.66 21 -2 21 C-2.28100502 13.83437211 -1.20443195 7.05453001 0 0 Z " fill="#704D36" transform="translate(459,363)"/>
<path d="M0 0 C3.0625 0.3125 3.0625 0.3125 4.9375 1.6875 C6.0625 3.3125 6.0625 3.3125 6.0625 5.3125 C5.0725 5.3125 4.0825 5.3125 3.0625 5.3125 C2.7325 4.6525 2.4025 3.9925 2.0625 3.3125 C0.7425 3.3125 -0.5775 3.3125 -1.9375 3.3125 C-1.9375 5.2925 -1.9375 7.2725 -1.9375 9.3125 C-3.2575 8.6525 -4.5775 7.9925 -5.9375 7.3125 C-4.86460706 0.51751139 -4.86460706 0.51751139 0 0 Z " fill="#E0E0E0" transform="translate(744.9375,1033.6875)"/>
<path d="M0 0 C2.125 0.375 2.125 0.375 4 1 C4.625 3.375 4.625 3.375 5 6 C4.34 6.66 3.68 7.32 3 8 C0.875 7.625 0.875 7.625 -1 7 C-1.625 4.625 -1.625 4.625 -2 2 C-1.34 1.34 -0.68 0.68 0 0 Z " fill="#0C0C0C" transform="translate(964,1041)"/>
<path d="M0 0 C0.33 0 0.66 0 1 0 C1.66 2.64 2.32 5.28 3 8 C6.70152678 8.92538169 7.63458162 9.08174162 11 8 C10.01 9.32 9.02 10.64 8 12 C4.625 11.75 4.625 11.75 1 11 C-1.53883972 8.01962293 -1.25211048 4.78165713 -1 1 C-0.67 0.67 -0.34 0.34 0 0 Z " fill="#EBEBEB" transform="translate(931,1039)"/>
<path d="M0 0 C0 1.32 0 2.64 0 4 C-1.65 4.33 -3.3 4.66 -5 5 C-5.33 4.01 -5.66 3.02 -6 2 C-7.32 2.33 -8.64 2.66 -10 3 C-10 2.34 -10 1.68 -10 1 C-6.42181037 -1.33958553 -4.07775191 -0.9267618 0 0 Z " fill="#222222" transform="translate(748,1044)"/>
<path d="M0 0 C1.65 0 3.3 0 5 0 C5 2.97 5 5.94 5 9 C4.34 9 3.68 9 3 9 C2.67 9.66 2.34 10.32 2 11 C2 10.34 2 9.68 2 9 C1.34 9 0.68 9 0 9 C0 6.03 0 3.06 0 0 Z " fill="#151515" transform="translate(714,1040)"/>
<path d="M0 0 C1.65 0 3.3 0 5 0 C5 2.97 5 5.94 5 9 C3.35 9 1.7 9 0 9 C0 6.03 0 3.06 0 0 Z " fill="#0F0F0F" transform="translate(757,1040)"/>
<path d="M0 0 C0.33 0 0.66 0 1 0 C1.32332002 4.63425362 0.8644432 7.28683289 -2 11 C-2.99 11.33 -3.98 11.66 -5 12 C-5.99 13.485 -5.99 13.485 -7 15 C-7.66 14.67 -8.32 14.34 -9 14 C-7.52504318 11.66390677 -6.04531255 9.33109833 -4.5625 7 C-4.14162109 6.33226562 -3.72074219 5.66453125 -3.28710938 4.9765625 C-2.21811183 3.30037435 -1.11197395 1.64799163 0 0 Z " fill="#66432B" transform="translate(408,634)"/>
<path d="M0 0 C0.99 0 1.98 0 3 0 C2.42365861 4.75481646 0.44931479 7.97048212 -2 12 C-2.66 12 -3.32 12 -4 12 C-4.33 10.68 -4.66 9.36 -5 8 C-4.34 8 -3.68 8 -3 8 C-2.87625 7.4225 -2.7525 6.845 -2.625 6.25 C-1.99351176 3.97664233 -1.11141809 2.0746471 0 0 Z " fill="#623D24" transform="translate(422,531)"/>
<path d="M0 0 C-0.66 1.32 -1.32 2.64 -2 4 C-2.5775 3.814375 -3.155 3.62875 -3.75 3.4375 C-6.24192097 2.95295981 -7.63959152 3.10467265 -10 4 C-10.33 4.66 -10.66 5.32 -11 6 C-14 5 -14 5 -16 3 C-14.08802961 2.29954544 -12.17019565 1.615081 -10.25 0.9375 C-9.18265625 0.55464844 -8.1153125 0.17179687 -7.015625 -0.22265625 C-4.07719958 -0.98010011 -2.77651052 -1.07151741 0 0 Z " fill="#6A4730" transform="translate(425,417)"/>
<path d="M0 0 C2.625 0.375 2.625 0.375 5 1 C5 2.32 5 3.64 5 5 C3.35 5.33 1.7 5.66 0 6 C-0.66 4.68 -1.32 3.36 -2 2 C-1.34 1.34 -0.68 0.68 0 0 Z " fill="#171717" transform="translate(949,1043)"/>
<path d="M0 0 C2.625 0.375 2.625 0.375 5 1 C5 2.32 5 3.64 5 5 C3.35 5.33 1.7 5.66 0 6 C-0.66 4.68 -1.32 3.36 -2 2 C-1.34 1.34 -0.68 0.68 0 0 Z " fill="#171717" transform="translate(878,1043)"/>
<path d="M0 0 C1 1 1 1 1.0625 4.0625 C1.041875 5.031875 1.02125 6.00125 1 7 C-1.51083114 5.74458443 -1.87125446 4.49936512 -3 2 C-5.38564077 2.57584432 -7.66682784 3.22227595 -10 4 C-9.625 2.0625 -9.625 2.0625 -9 0 C-5.90842747 -1.54578627 -3.31526981 -0.60277633 0 0 Z " fill="#E6E6E6" transform="translate(871,1035)"/>
<path d="M0 0 C3 1 3 1 4.203125 2.99609375 C4.54859375 3.80175781 4.8940625 4.60742188 5.25 5.4375 C5.78367187 6.64212891 5.78367187 6.64212891 6.328125 7.87109375 C7 10 7 10 6 12 C3.525 11.01 3.525 11.01 1 10 C1.33 8.68 1.66 7.36 2 6 C1.34 6 0.68 6 0 6 C0 4.02 0 2.04 0 0 Z " fill="#633E25" transform="translate(553,382)"/>
<path d="M0 0 C0.33 0.99 0.66 1.98 1 3 C-1.31 2.67 -3.62 2.34 -6 2 C-6.33 3.32 -6.66 4.64 -7 6 C-8.32 5.67 -9.64 5.34 -11 5 C-8.6102683 -1.65710974 -6.76304013 -1.12717335 0 0 Z " fill="#D0D0D0" transform="translate(970,1035)"/>
<path d="M0 0 C0.99 0.33 1.98 0.66 3 1 C2.34 1.66 1.68 2.32 1 3 C0.83312552 5.58354218 0.83312552 5.58354218 1 8 C2.32 8.66 3.64 9.32 5 10 C5 10.66 5 11.32 5 12 C0.25 11.25 0.25 11.25 -2 9 C-2.25 5.5 -2.25 5.5 -2 2 C-1.34 1.34 -0.68 0.68 0 0 Z " fill="#F0F0F0" transform="translate(763,1039)"/>
<path d="M0 0 C0.99 0.33 1.98 0.66 3 1 C1.68 4.63 0.36 8.26 -1 12 C-1.99 12 -2.98 12 -4 12 C-3.52494322 10.18641846 -3.04483958 8.37415821 -2.5625 6.5625 C-2.29566406 5.55316406 -2.02882813 4.54382812 -1.75390625 3.50390625 C-1 1 -1 1 0 0 Z " fill="#D6D6D6" transform="translate(681,1034)"/>
<path d="M0 0 C1.2065625 0.0309375 1.2065625 0.0309375 2.4375 0.0625 C2.7675 1.7125 3.0975 3.3625 3.4375 5.0625 C0.4675 5.0625 -2.5025 5.0625 -5.5625 5.0625 C-3.06867284 0.07484568 -3.06867284 0.07484568 0 0 Z " fill="#818181" transform="translate(689.5625,1037.9375)"/>
<path d="M0 0 C3.125 0.25 3.125 0.25 5.0625 1.5 C6.125 3.25 6.125 3.25 5.8125 5.4375 C5.4721875 6.3346875 5.4721875 6.3346875 5.125 7.25 C4.135 7.25 3.145 7.25 2.125 7.25 C2.125 5.93 2.125 4.61 2.125 3.25 C0.145 3.58 -1.835 3.91 -3.875 4.25 C-3.875 0.33695652 -3.875 0.33695652 0 0 Z " fill="#DEDEDE" transform="translate(879.875,1033.75)"/>
<path d="M0 0 C0.66 0 1.32 0 2 0 C1.67 2.64 1.34 5.28 1 8 C2.32 8.66 3.64 9.32 5 10 C5 10.66 5 11.32 5 12 C0.25 11.25 0.25 11.25 -2 9 C-2.25 5.5 -2.25 5.5 -2 2 C-1.34 1.34 -0.68 0.68 0 0 Z " fill="#EFEFEF" transform="translate(820,1039)"/>
<path d="M0 0 C2.31 0.33 4.62 0.66 7 1 C7.33 1.99 7.66 2.98 8 4 C4.7 4 1.4 4 -2 4 C-1.34 2.68 -0.68 1.36 0 0 Z " fill="#0C0C0C" transform="translate(54,1036)"/>
<path d="M0 0 C1.32 0.33 2.64 0.66 4 1 C4.33 1.99 4.66 2.98 5 4 C2.53721199 6.46278801 0.29323018 6.99771255 -3 8 C-2.01 5.36 -1.02 2.72 0 0 Z " fill="#653F25" transform="translate(275,545)"/>
<path d="M0 0 C0.99 0 1.98 0 3 0 C3 2.97 3 5.94 3 9 C3.99 9 4.98 9 6 9 C6 9.66 6 10.32 6 11 C4.33388095 11.042721 2.66617115 11.04063832 1 11 C0 10 0 10 -0.09765625 7.71484375 C-0.08605469 6.79832031 -0.07445312 5.88179687 -0.0625 4.9375 C-0.05347656 4.01839844 -0.04445313 3.09929687 -0.03515625 2.15234375 C-0.02355469 1.44207031 -0.01195312 0.73179688 0 0 Z " fill="#C3C3C3" transform="translate(754,1040)"/>
<path d="M0 0 C1.32 0.66 2.64 1.32 4 2 C3.67 5.63 3.34 9.26 3 13 C2.34 13 1.68 13 1 13 C0.83147753 11.39602723 0.66525114 9.7918131 0.5 8.1875 C0.4071875 7.29417969 0.314375 6.40085937 0.21875 5.48046875 C0 3 0 3 0 0 Z " fill="#FBFBFB" transform="translate(838,1038)"/>
<path d="M0 0 C2.31 0.33 4.62 0.66 7 1 C4.19195732 3.96404505 1.81684226 6.44499019 -2 8 C-1.47731534 5.23723823 -0.89130413 2.6739124 0 0 Z " fill="#69462E" transform="translate(470,714)"/>
<path d="M0 0 C0.99 0.33 1.98 0.66 3 1 C2.04578192 2.14926266 1.08647955 3.29430541 0.125 4.4375 C-0.40867187 5.07558594 -0.94234375 5.71367188 -1.4921875 6.37109375 C-3 8 -3 8 -5 9 C-5 7.35 -5 5.7 -5 4 C-3.35 3.34 -1.7 2.68 0 2 C0 1.34 0 0.68 0 0 Z " fill="#613D24" transform="translate(334,692)"/>
<path d="M0 0 C1.25733598 3.77200794 1.03366148 6.25297715 0 10 C-0.99 9.67 -1.98 9.34 -3 9 C-3.99 9 -4.98 9 -6 9 C-4.02 6.03 -2.04 3.06 0 0 Z " fill="#67432C" transform="translate(302,501)"/>
<path d="M0 0 C2.18994248 3.28491373 2.35277339 4.83095639 2.625 8.6875 C2.69976563 9.68136719 2.77453125 10.67523438 2.8515625 11.69921875 C2.92503906 12.83810547 2.92503906 12.83810547 3 14 C2.01 14 1.02 14 0 14 C-0.33 12.02 -0.66 10.04 -1 8 C-0.34 8 0.32 8 1 8 C0.67 5.36 0.34 2.72 0 0 Z " fill="#6D4B36" transform="translate(740,416)"/>
<path d="M0 0 C0 2.83967231 -0.40267181 5.23735711 -1 8 C-2.98 8.33 -4.96 8.66 -7 9 C-2.85714286 2.57142857 -2.85714286 2.57142857 0 0 Z " fill="#6B4A33" transform="translate(500,279)"/>
<path d="M0 0 C3.63 0 7.26 0 11 0 C10.67 1.32 10.34 2.64 10 4 C9.34 4 8.68 4 8 4 C8 3.34 8 2.68 8 2 C5.36 2 2.72 2 0 2 C0 1.34 0 0.68 0 0 Z " fill="#F8F8F8" transform="translate(888,1034)"/>
<path d="M0 0 C0.66 0.33 1.32 0.66 2 1 C0.64978174 5.41889613 -1.26115668 7.34345343 -5 10 C-5.66 9.67 -6.32 9.34 -7 9 C-4.69 6.03 -2.38 3.06 0 0 Z " fill="#644129" transform="translate(395,654)"/>
<path d="M0 0 C0.66 0.66 1.32 1.32 2 2 C0.68 6.29 -0.64 10.58 -2 15 C-2.33 15 -2.66 15 -3 15 C-3.3152595 9.01006953 -2.68219822 5.36439644 0 0 Z " fill="#664128" transform="translate(572,581)"/>
<path d="M0 0 C0.66 0.33 1.32 0.66 2 1 C2.40729228 3.32156597 2.74438677 5.6568787 3 8 C2.01 8 1.02 8 0 8 C-0.33 8.66 -0.66 9.32 -1 10 C-1.66 10 -2.32 10 -3 10 C-2.01 6.7 -1.02 3.4 0 0 Z " fill="#68452E" transform="translate(268,561)"/>
<path d="M0 0 C0.99 0 1.98 0 3 0 C3.33 1.32 3.66 2.64 4 4 C1 6 1 6 -1.6875 5.625 C-2.450625 5.41875 -3.21375 5.2125 -4 5 C-2.1875 2.5 -2.1875 2.5 0 0 Z " fill="#633D25" transform="translate(315,486)"/>
<path d="M0 0 C1.65 0.33 3.3 0.66 5 1 C4.67 2.32 4.34 3.64 4 5 C2.35 4.67 0.7 4.34 -1 4 C-0.67 2.68 -0.34 1.36 0 0 Z " fill="#121212" transform="translate(949,1036)"/>
<path d="M0 0 C1.65 0.33 3.3 0.66 5 1 C4.67 2.32 4.34 3.64 4 5 C2.35 4.67 0.7 4.34 -1 4 C-0.67 2.68 -0.34 1.36 0 0 Z " fill="#111111" transform="translate(878,1036)"/>
<path d="M0 0 C3.99996286 1.33332095 4.83782337 3.4957827 7 7 C6.01 7.495 6.01 7.495 5 8 C2.96855359 7.06553465 0.96466413 6.06775224 -1 5 C-0.67 3.35 -0.34 1.7 0 0 Z " fill="#654129" transform="translate(687,306)"/>
<path d="M0 0 C2.64 0 5.28 0 8 0 C8.33 0.66 8.66 1.32 9 2 C6.74778616 3.36741555 5.47442242 4.04066478 2.8125 3.8125 C2.214375 3.544375 1.61625 3.27625 1 3 C0.67 2.01 0.34 1.02 0 0 Z " fill="#151515" transform="translate(686,1045)"/>
<path d="M0 0 C0.66 0 1.32 0 2 0 C2.25 2.75 2.25 2.75 2 6 C0 8.375 0 8.375 -2 10 C-2.89868727 7.48367565 -3.1616905 6.39267692 -2.125 3.875 C-1.75375 3.25625 -1.3825 2.6375 -1 2 C-0.67 1.34 -0.34 0.68 0 0 Z " fill="#643F26" transform="translate(444,496)"/>
<path d="M0 0 C1.5625 1.6875 1.5625 1.6875 3 4 C2.6875 6.75 2.6875 6.75 2 9 C0.68 8.67 -0.64 8.34 -2 8 C-1.125 2.25 -1.125 2.25 0 0 Z " fill="#653F25" transform="translate(564,462)"/>
<path d="M0 0 C1 2 1 2 0.375 4.0625 C-1 6 -1 6 -3.5625 6.625 C-4.366875 6.74875 -5.17125 6.8725 -6 7 C-6.33 7.66 -6.66 8.32 -7 9 C-7 6 -7 6 -5.46875 4.39453125 C-4.49421875 3.61142578 -4.49421875 3.61142578 -3.5 2.8125 C-2.8503125 2.28269531 -2.200625 1.75289063 -1.53125 1.20703125 C-1.0259375 0.80871094 -0.520625 0.41039062 0 0 Z " fill="#67432B" transform="translate(345,457)"/>
<path d="M0 0 C0.9075 0.185625 1.815 0.37125 2.75 0.5625 C5.68314324 0.95734621 7.2644657 0.94691572 10 0 C9.67 0.99 9.34 1.98 9 3 C6.69 3.33 4.38 3.66 2 4 C1.34 2.68 0.68 1.36 0 0 Z " fill="#E4E4E4" transform="translate(685,1047)"/>
<path d="M0 0 C0.33 0 0.66 0 1 0 C0.6875 3.375 0.6875 3.375 0 7 C-3.22791555 9.1519437 -4.28400809 9.20086443 -8 9 C-7.38125 8.95875 -6.7625 8.9175 -6.125 8.875 C-5.42375 8.58625 -4.7225 8.2975 -4 8 C-2.82917122 5.07085835 -2.82917122 5.07085835 -2 2 C-1.34 1.34 -0.68 0.68 0 0 Z " fill="#C9C9C9" transform="translate(729,1042)"/>
<path d="M0 0 C0.3403125 0.928125 0.3403125 0.928125 0.6875 1.875 C2.37929835 4.61410209 3.99244161 5.05024472 7 6 C7 6.66 7 7.32 7 8 C4.19637237 8.22732116 2.53813483 8.34081872 0.125 6.8125 C-1 5 -1 5 -0.6875 2.3125 C-0.460625 1.549375 -0.23375 0.78625 0 0 Z " fill="#F1F1F1" transform="translate(946,1043)"/>
<path d="M0 0 C0.66 0.33 1.32 0.66 2 1 C1.67 1.61875 1.34 2.2375 1 2.875 C-0.14193235 4.91018344 -0.14193235 4.91018344 0 7 C-2.375 8.6875 -2.375 8.6875 -5 10 C-5.66 9.67 -6.32 9.34 -7 9 C-4.69 6.03 -2.38 3.06 0 0 Z " fill="#6A4833" transform="translate(471,501)"/>
<path d="M0 0 C1.65 0 3.3 0 5 0 C5 1.32 5 2.64 5 4 C5.66 4.33 6.32 4.66 7 5 C6.01 5.99 5.02 6.98 4 8 C2.68 5.36 1.36 2.72 0 0 Z " fill="#653F26" transform="translate(570,452)"/>
<path d="M0 0 C3.65316671 1.24976756 4.78065836 1.67098753 7 5 C3.98968256 5.93423645 3.13349732 6.04449911 0 5 C0 3.35 0 1.7 0 0 Z " fill="#6B4830" transform="translate(528,426)"/>
<path d="M0 0 C0.33 0 0.66 0 1 0 C1.36253776 5.43806647 1.36253776 5.43806647 -0.25 7.9375 C-2 9 -2 9 -4.1875 8.6875 C-4.785625 8.460625 -5.38375 8.23375 -6 8 C-5.071875 7.4121875 -5.071875 7.4121875 -4.125 6.8125 C-1.67503632 4.72282509 -0.98120002 3.02536673 0 0 Z " fill="#F1F1F1" transform="translate(970,1042)"/>
<path d="M0 0 C6.875 0.875 6.875 0.875 8 2 C8.04080783 3.99958364 8.04254356 6.00045254 8 8 C7.4225 7.236875 6.845 6.47375 6.25 5.6875 C4.28296907 3.33799083 2.51523256 1.70676495 0 0 Z " fill="#E1E1E1" transform="translate(721,1038)"/>
<path d="M0 0 C0.33 0.99 0.66 1.98 1 3 C0.01 3.33 -0.98 3.66 -2 4 C-3.21869929 6.50447516 -3.21869929 6.50447516 -4 9 C-5.32 8.34 -6.64 7.68 -8 7 C-5.42215154 4.35247996 -3.08351902 2.05567935 0 0 Z " fill="#684630" transform="translate(354,450)"/>
<path d="M0 0 C2.97 0.33 5.94 0.66 9 1 C9 1.66 9 2.32 9 3 C5.37 3 1.74 3 -2 3 C-1.34 2.01 -0.68 1.02 0 0 Z " fill="#FDFDFD" transform="translate(904,1048)"/>
<path d="M0 0 C2.97 0.33 5.94 0.66 9 1 C9 1.66 9 2.32 9 3 C5.37 3 1.74 3 -2 3 C-1.34 2.01 -0.68 1.02 0 0 Z " fill="#FDFDFD" transform="translate(863,1048)"/>
<path d="M0 0 C0.99 0 1.98 0 3 0 C3.33 1.98 3.66 3.96 4 6 C3.34 6 2.68 6 2 6 C2 6.66 2 7.32 2 8 C1.34 7.67 0.68 7.34 0 7 C0 4.69 0 2.38 0 0 Z M-2 8 C-1.01 8.495 -1.01 8.495 0 9 C-0.66 9.66 -1.32 10.32 -2 11 C-2 10.01 -2 9.02 -2 8 Z " fill="#161616" transform="translate(956,1042)"/>
<path d="M0 0 C0.33 0 0.66 0 1 0 C1.12375 1.2375 1.2475 2.475 1.375 3.75 C1.75746305 6.8762197 2.30549523 9.28879237 4 12 C1.525 11.01 1.525 11.01 -1 10 C-0.67 6.7 -0.34 3.4 0 0 Z " fill="#C9C9C9" transform="translate(917,1039)"/>
<path d="M0 0 C0.99 0.33 1.98 0.66 3 1 C4.1875 4.5625 4.1875 4.5625 5 8 C4.01 8 3.02 8 2 8 C0.74335022 5.09399739 0 3.20395416 0 0 Z " fill="#E0E0E0" transform="translate(669,1034)"/>
<path d="M0 0 C0.66 0.66 1.32 1.32 2 2 C-1.465 4.97 -1.465 4.97 -5 8 C-5.33 7.01 -5.66 6.02 -6 5 C-5.34 5 -4.68 5 -4 5 C-4 4.34 -4 3.68 -4 3 C-2 1.375 -2 1.375 0 0 Z " fill="#644027" transform="translate(346,681)"/>
<path d="M0 0 C0.33 0 0.66 0 1 0 C0.75 3.375 0.75 3.375 0 7 C-2.0625 8.4375 -2.0625 8.4375 -4 9 C-3.29975694 5.73219907 -2.42301753 2.42301753 0 0 Z " fill="#C7C7C7" transform="translate(772,1042)"/>
<path d="M0 0 C-1.04874998 2.62187494 -1.64931313 3.79371361 -4.125 5.25 C-4.74375 5.4975 -5.3625 5.745 -6 6 C-6 5.34 -6 4.68 -6 4 C-6.66 3.67 -7.32 3.34 -8 3 C-2.25 0 -2.25 0 0 0 Z " fill="#6A4730" transform="translate(403,423)"/>
<path d="M0 0 C2.71631546 0.90543849 5.34771188 1.92474806 8 3 C8 3.66 8 4.32 8 5 C3.545 4.01 3.545 4.01 -1 3 C-0.67 2.01 -0.34 1.02 0 0 Z " fill="#644128" transform="translate(501,401)"/>
<path d="M0 0 C0.33 0 0.66 0 1 0 C0.75 3.375 0.75 3.375 0 7 C-2.0625 8.4375 -2.0625 8.4375 -4 9 C-3.35499066 5.51694958 -1.95865224 2.93797836 0 0 Z " fill="#C7C7C7" transform="translate(829,1042)"/>
<path d="M0 0 C2.96175123 0.61277612 4.38058783 1.25372522 7 3 C0.25 4 0.25 4 -2 4 C-1.34 2.68 -0.68 1.36 0 0 Z " fill="#151515" transform="translate(964,1036)"/>
<path d="M0 0 C0.99 0.99 1.98 1.98 3 3 C2.67 3.66 2.34 4.32 2 5 C-0.97 4.505 -0.97 4.505 -4 4 C-2.68 2.68 -1.36 1.36 0 0 Z " fill="#654029" transform="translate(355,698)"/>
<path d="M0 0 C-0.66 1.98 -1.32 3.96 -2 6 C-2.99 6 -3.98 6 -5 6 C-4 4 -4 4 -3 3 C-3.99 2.67 -4.98 2.34 -6 2 C-2.25 0 -2.25 0 0 0 Z " fill="#633F26" transform="translate(430,523)"/>
<path d="M0 0 C0 0.99 0 1.98 0 3 C-0.99 3 -1.98 3 -3 3 C-3.33 4.32 -3.66 5.64 -4 7 C-4.99 7 -5.98 7 -7 7 C-3.86206897 0 -3.86206897 0 0 0 Z " fill="#6C4933" transform="translate(334,468)"/>
<path d="M0 0 C2.15377564 2.62198774 3.40072174 4.64404172 4 8 C0.26360784 6.75453595 -0.18756513 5.36595047 -2 2 C-1.34 1.34 -0.68 0.68 0 0 Z " fill="#6B482F" transform="translate(719,354)"/>
<path d="M0 0 C-0.33 2.31 -0.66 4.62 -1 7 C-1.2475 6.360625 -1.495 5.72125 -1.75 5.0625 C-2.81562433 2.81258459 -2.81562433 2.81258459 -5.125 2.25 C-6.053125 2.12625 -6.053125 2.12625 -7 2 C-2.25 0 -2.25 0 0 0 Z " fill="#70523D" transform="translate(539,254)"/>
<path d="M0 0 C2.31 0.33 4.62 0.66 7 1 C7.33 2.32 7.66 3.64 8 5 C5.04590299 3.62845496 2.55991624 2.01136276 0 0 Z " fill="#DDDDDD" transform="translate(808,1038)"/>
<path d="M0 0 C2.31 0.33 4.62 0.66 7 1 C7.33 2.32 7.66 3.64 8 5 C5.04590299 3.62845496 2.55991624 2.01136276 0 0 Z " fill="#DDDDDD" transform="translate(700,1038)"/>
<path d="M0 0 C1.32 0.33 2.64 0.66 4 1 C2.25 5.875 2.25 5.875 0 7 C0 4.69 0 2.38 0 0 Z " fill="#623D23" transform="translate(713,569)"/>
<path d="M0 0 C1.65 0.33 3.3 0.66 5 1 C3.35 2.65 1.7 4.3 0 6 C-1 3 -1 3 0 0 Z " fill="#654129" transform="translate(494,449)"/>
<path d="M0 0 C0.33 0.66 0.66 1.32 1 2 C-0.32 3.32 -1.64 4.64 -3 6 C-3.99 5.67 -4.98 5.34 -6 5 C-4.02 3.35 -2.04 1.7 0 0 Z " fill="#6B4A35" transform="translate(507,273)"/>
<path d="M0 0 C0.66 0 1.32 0 2 0 C1.67 1.32 1.34 2.64 1 4 C-1.31 4.33 -3.62 4.66 -6 5 C-5.195625 4.360625 -4.39125 3.72125 -3.5625 3.0625 C-1.7249496 1.59396498 -1.7249496 1.59396498 0 0 Z " fill="#D7D7D7" transform="translate(783,1046)"/>
<path d="M0 0 C1.89213369 2.38573379 3.02391783 4.07175348 4 7 C1.525 6.01 1.525 6.01 -1 5 C-0.67 3.35 -0.34 1.7 0 0 Z " fill="#DBDBDB" transform="translate(961,1044)"/>
<path d="M0 0 C0 2.31 0 4.62 0 7 C-0.99 7.33 -1.98 7.66 -3 8 C-3 5.69 -3 3.38 -3 1 C-1 0 -1 0 0 0 Z " fill="#C8C8C8" transform="translate(943,1039)"/>
<path d="M0 0 C2.97 0.495 2.97 0.495 6 1 C6 1.99 6 2.98 6 4 C3.69 3.67 1.38 3.34 -1 3 C-0.67 2.01 -0.34 1.02 0 0 Z " fill="#E3E3E3" transform="translate(964,1039)"/>
<path d="M0 0 C2.31 0.33 4.62 0.66 7 1 C7.33 2.32 7.66 3.64 8 5 C5.04590299 3.62845496 2.55991624 2.01136276 0 0 Z " fill="#DBDBDB" transform="translate(777,1038)"/>
<path d="M0 0 C0.99 0.99 1.98 1.98 3 3 C2 6 2 6 -0.0625 7.1875 C-0.701875 7.455625 -1.34125 7.72375 -2 8 C-1.34 5.36 -0.68 2.72 0 0 Z " fill="#6D4C36" transform="translate(580,594)"/>
<path d="M0 0 C0.66 0.33 1.32 0.66 2 1 C1.34 2.98 0.68 4.96 0 7 C-0.66 7 -1.32 7 -2 7 C-1.67 5.68 -1.34 4.36 -1 3 C-1.66 3 -2.32 3 -3 3 C-3 2.34 -3 1.68 -3 1 C-2.01 0.67 -1.02 0.34 0 0 Z " fill="#634029" transform="translate(399,592)"/>
<path d="M0 0 C0.66 0.99 1.32 1.98 2 3 C0.68 4.65 -0.64 6.3 -2 8 C-2.66 7.67 -3.32 7.34 -4 7 C-2.68 4.69 -1.36 2.38 0 0 Z " fill="#6D4D38" transform="translate(290,518)"/>
<path d="M0 0 C0.33 0.99 0.66 1.98 1 3 C0.34 2.67 -0.32 2.34 -1 2 C-0.67 1.34 -0.34 0.68 0 0 Z M-3 3 C-2.34 3 -1.68 3 -1 3 C-0.375 4.875 -0.375 4.875 0 7 C-0.66 7.66 -1.32 8.32 -2 9 C-2.66 7.35 -3.32 5.7 -4 4 C-3.67 3.67 -3.34 3.34 -3 3 Z " fill="#653D24" transform="translate(639,458)"/>
<path d="M0 0 C0.66 0.33 1.32 0.66 2 1 C1.34 2.32 0.68 3.64 0 5 C-1.65 5 -3.3 5 -5 5 C-5.33 4.34 -5.66 3.68 -6 3 C-4.03533587 1.93224776 -2.03144641 0.93446535 0 0 Z " fill="#644129" transform="translate(383,432)"/>
<path d="M0 0 C0.66 0 1.32 0 2 0 C2.66 1.98 3.32 3.96 4 6 C2.02 5.34 0.04 4.68 -2 4 C-2 3.34 -2 2.68 -2 2 C-1.34 2 -0.68 2 0 2 C0 1.34 0 0.68 0 0 Z " fill="#6A452E" transform="translate(556,388)"/>
<path d="M0 0 C0.99 1.32 1.98 2.64 3 4 C2.01 4.99 1.02 5.98 0 7 C-0.33 6.34 -0.66 5.68 -1 5 C-1.66 4.67 -2.32 4.34 -3 4 C-2.01 2.68 -1.02 1.36 0 0 Z " fill="#66432B" transform="translate(492,288)"/>
<path d="M0 0 C2.97 1.98 2.97 1.98 6 4 C4.125 5.0625 4.125 5.0625 2 6 C1.34 5.67 0.68 5.34 0 5 C0 3.35 0 1.7 0 0 Z " fill="#69462F" transform="translate(658,277)"/>
</svg>
